<?xml version="1.0" encoding="UTF-8"?>
<!DOCTYPE svg PUBLIC "-//W3C//DTD SVG 1.1//EN" "http://www.w3.org/Graphics/SVG/1.1/DTD/svg11.dtd">
<!-- Creator: CorelDRAW 2020 (64-Bit) -->
<?xml-stylesheet href="emailemail.css" type="text/css"?>
<svg xmlns="http://www.w3.org/2000/svg" xml:space="preserve" width="567px" height="455px" version="1.1" style="shape-rendering:geometricPrecision; text-rendering:geometricPrecision; image-rendering:optimizeQuality; fill-rule:evenodd; clip-rule:evenodd"
viewBox="0 0 146.88 117.73"
 xmlns:xlink="http://www.w3.org/1999/xlink"
 xmlns:xodm="http://www.corel.com/coreldraw/odm/2003">
 <g id="Layer_x0020_1">
  <metadata id="CorelCorpID_0Corel-Layer"/>
  <path class="fil0" d="M22.17 0l102.54 0c12.19,0 22.17,9.98 22.17,22.17l0 73.39c0,12.18 -9.99,22.17 -22.17,22.17l-102.54 0c-12.19,0 -22.17,-9.98 -22.17,-22.17l0 -73.39c0,-12.19 9.98,-22.17 22.17,-22.17zm-9.4 22.63l60.67 37.99 60.67 -37.99 0 -0.46c0,-5.15 -4.26,-9.4 -9.4,-9.4l-102.54 0c-5.15,0 -9.4,4.26 -9.4,9.4l0 0.46zm121.34 16.17l-60.67 37.99 -60.67 -37.99 0 56.76c0,5.13 4.25,9.4 9.4,9.4l102.54 0c5.14,0 9.4,-4.26 9.4,-9.4l0 -56.76z"/>
 </g>
</svg>
