<?xml version="1.0" encoding="UTF-8"?>
<!DOCTYPE svg PUBLIC "-//W3C//DTD SVG 1.1//EN" "http://www.w3.org/Graphics/SVG/1.1/DTD/svg11.dtd">
<!-- Creator: CorelDRAW 2020 (64-Bit) -->
<?xml-stylesheet href="inal insta.css" type="text/css"?>
<svg xmlns="http://www.w3.org/2000/svg" xml:space="preserve" width="567px" height="567px" version="1.1" style="shape-rendering:geometricPrecision; text-rendering:geometricPrecision; image-rendering:optimizeQuality; fill-rule:evenodd; clip-rule:evenodd"
viewBox="0 0 397.29 397.29"
 xmlns:xlink="http://www.w3.org/1999/xlink"
 xmlns:xodm="http://www.corel.com/coreldraw/odm/2003">
 <g id="Layer_x0020_1">
  <metadata id="CorelCorpID_0Corel-Layer"/>
  <path class="fil0" d="M66.2 0l264.89 0c36.41,0 66.2,29.79 66.2,66.2l0 264.89c0,36.41 -29.79,66.2 -66.2,66.2l-264.89 0c-36.41,0 -66.2,-29.79 -66.2,-66.2l0 -264.89c0,-36.41 29.79,-66.2 66.2,-66.2zm0 38.12c-15.37,0 -28.08,12.71 -28.08,28.08l0 264.89c0,15.36 12.71,28.07 28.08,28.07l264.89 0c15.36,0 28.07,-12.71 28.07,-28.07l0 -264.89c0,-15.37 -12.71,-28.08 -28.07,-28.08l-264.89 0zm132.44 53.19c59.29,0 107.34,48.05 107.34,107.33 0,59.29 -48.05,107.34 -107.34,107.34 -59.28,0 -107.33,-48.05 -107.33,-107.34 0,-59.28 48.05,-107.33 107.33,-107.33zm0 39.54c37.45,0 67.8,30.35 67.8,67.79 0,37.45 -30.35,67.8 -67.8,67.8 -37.44,0 -67.79,-30.35 -67.79,-67.8 0,-37.44 30.35,-67.79 67.79,-67.79zm110.94 -63.38c10.72,0 19.41,8.69 19.41,19.41 0,10.72 -8.69,19.41 -19.41,19.41 -10.72,0 -19.41,-8.69 -19.41,-19.41 0,-10.72 8.69,-19.41 19.41,-19.41z"/>
 </g>
</svg>
