<?xml version="1.0" encoding="UTF-8"?>
<!DOCTYPE svg PUBLIC "-//W3C//DTD SVG 1.1//EN" "http://www.w3.org/Graphics/SVG/1.1/DTD/svg11.dtd">
<!-- Creator: CorelDRAW 2020 (64-Bit) -->
<?xml-stylesheet href="final whatsapp.css" type="text/css"?>
<svg xmlns="http://www.w3.org/2000/svg" xml:space="preserve" width="567px" height="567px" version="1.1" style="shape-rendering:geometricPrecision; text-rendering:geometricPrecision; image-rendering:optimizeQuality; fill-rule:evenodd; clip-rule:evenodd"
viewBox="0 0 500.67 500.67"
 xmlns:xlink="http://www.w3.org/1999/xlink"
 xmlns:xodm="http://www.corel.com/coreldraw/odm/2003">
 <g id="Layer_x0020_1">
  <metadata id="CorelCorpID_0Corel-Layer"/>
  <path class="fil0" d="M250.34 0c138.26,0 250.33,112.08 250.33,250.34 0,138.26 -112.07,250.33 -250.33,250.33 -45.63,0 -88.41,-12.2 -125.25,-33.53l-119.17 30.73 28.32 -121.07c-21.76,-37.11 -34.24,-80.33 -34.24,-126.46 0,-138.26 112.08,-250.34 250.34,-250.34zm0 51.99c109.54,0 198.35,88.8 198.35,198.35 0,109.54 -88.81,198.35 -198.35,198.35 -37.83,0 -73.19,-10.6 -103.27,-28.97l-79.43 17.71 17.5 -77.28c-20.95,-31.44 -33.15,-69.2 -33.15,-109.81 0,-109.55 88.8,-198.35 198.35,-198.35zm-94.19 88.79c-31.43,19.91 -40,54.77 -24.29,89.41 15.4,33.92 36.15,60.91 60.01,84.64 5.88,5.85 11.75,9.91 18.06,14.79 38.39,29.69 122.24,63.5 155.7,20.67 11.13,-14.25 15.99,-31.02 1.64,-45.03 -6.3,-6.15 -31.08,-14.74 -41.44,-19.09 -30.39,-12.76 -19.6,8.57 -39.12,17.92 -14.89,7.13 -34.56,-2.8 -45.27,-11.51 -15.81,-12.86 -49.14,-36.48 -46.44,-54.77 1.28,-8.63 6.35,-12.78 10.23,-20.37 3.51,-6.86 5.1,-14.6 0.95,-24.59 -4.69,-11.22 -20.1,-36.27 -27.16,-47.09 -3.19,-4.88 -4.09,-6.15 -9.15,-7.25 -4.31,-0.93 -9.37,-0.48 -13.72,2.27z"/>
 </g>
</svg>
